<?xml version="1.0" encoding="UTF-8"?>
<svg xmlns="http://www.w3.org/2000/svg" viewBox="0 0 521.82 594.95">
  <defs>
    <style>
      .cls-1 {
        fill: #000;
        stroke-width: 0px;
      }

      .cls-2 {
        fill: none;
        stroke: #000;
        stroke-miterlimit: 10;
        stroke-width: 24px;
      }
    </style>
  </defs>
  <g id="Layer_1" data-name="Layer 1">
    <path class="cls-2" d="M436.54,399.15c2.22,6.79.49,16.49-1.55,25.4-8.01,32.55-27.74,60.59-52.45,81.08-67.6,55.85-170.8,55.61-238.6.47-25.97-21.35-46.59-51.55-53.69-86.01-1.63-9.88-2.68-16.58.12-23.69,2.46-5.47,8.19-5.9,13.31-5.89,71.22.07,201.06-.14,281.86-.04,10.17,0,21.48,0,30.62,0,7.39.14,17.46-.31,20.33,8.57l.03.11Z"/>
    <path class="cls-2" d="M399.44,274.08c1.74,5.34.38,12.96-1.22,19.97-6.3,25.59-21.81,47.63-41.23,63.73-53.14,43.91-134.26,43.72-187.56.37-20.41-16.79-36.63-40.52-42.2-67.61-1.28-7.77-2.11-13.04.1-18.62,1.93-4.3,6.44-4.64,10.46-4.63,55.98.05,158.05-.11,221.57-.03,7.99,0,16.89,0,24.07,0,5.81.11,13.73-.25,15.98,6.73l.03.08Z"/>
    <path class="cls-2" d="M370.28,175.82c1.37,4.2.3,10.19-.96,15.7-4.95,20.11-17.14,37.44-32.41,50.1-41.77,34.52-105.54,34.37-147.44.29-16.05-13.2-28.79-31.85-33.18-53.15-1.01-6.11-1.66-10.25.08-14.64,1.52-3.38,5.06-3.65,8.22-3.64,44.01.04,124.24-.09,174.18-.03,6.28,0,13.27,0,18.92,0,4.57.09,10.79-.19,12.56,5.29l.02.07Z"/>
  </g>
  <g id="Layer_2" data-name="Layer 2">
    <g id="Layer_1-2" data-name="Layer 1">
      <g>
        <path class="cls-1" d="M0,426V0h156c35.6,0,65.6,12.1,90,36.3,24.39,24.21,36.6,53.31,36.6,87.3,0,30.81-11.2,56.2-33.6,76.2,42,20.8,63,54.4,63,100.8,0,35.61-12.6,65.4-37.8,89.4s-56.61,36-94.2,36H0ZM87,174.6h60.6c15.2,0,27.39-4.5,36.6-13.5,9.2-9,13.8-20.3,13.8-33.9s-4.71-24.5-14.1-33.9c-9.4-9.39-21.51-14.1-36.3-14.1h-60.6v95.4ZM87,346.2h87c16.4,0,29.4-4.5,39-13.5,9.6-9,14.4-20.7,14.4-35.1s-4.8-26.19-14.4-35.4c-9.6-9.2-22.6-13.8-39-13.8h-87v97.8Z"/>
        <path class="cls-1" d="M416.39,430.8c-16.8,0-31-5.79-42.6-17.4-11.61-11.6-17.4-25.8-17.4-42.6s5.79-30.99,17.4-42.6c11.6-11.6,25.8-17.4,42.6-17.4s30.5,5.91,42.3,17.7c11.79,11.8,17.7,25.9,17.7,42.3s-5.91,30.51-17.7,42.3-25.9,17.7-42.3,17.7Z"/>
      </g>
    </g>
  </g>
</svg>