<?xml version="1.0" encoding="UTF-8"?>
<svg xmlns="http://www.w3.org/2000/svg" viewBox="0 0 7151.17 1254.7">
  <defs>
    <style>
      .cls-1 {
        fill: #fff;
        stroke-width: 0px;
      }

    </style>
  </defs>
  <g id="Layer_2" data-name="Layer 2">
    <g id="Layer_1-2" data-name="Layer 1">
      <g>
        <path class="cls-1" d="M1.28,0c3.74,0,7.05,0,10.36,0,147.31,0,294.62-.01,441.93,0,63.41.01,124.05,12.47,179.33,44.24,86.79,49.88,147.7,121.32,174.94,218.82,14.73,52.73,16.59,106.39,6.02,160.23-11.4,58.06-39.64,106.88-82.15,147.73-2.6,2.5-5.4,4.79-8.99,7.95,4.93,2.66,8.68,4.7,12.43,6.71,44.31,23.76,83.13,54.06,113.13,94.86,27.98,38.06,44.94,80.77,52.23,127.17,9.15,58.32,6.79,116.21-10.47,172.97-24.02,78.98-72.71,139.89-139.43,187.07-50.49,35.71-106.99,56.37-168.3,63.45-21.13,2.44-42.51,3.76-63.78,3.8-168.31.3-336.61.17-504.92.17H1.84C-.19,1227.46-.77,14.31,1.28,0ZM253.28,1003.66c3.93,0,7.18,0,10.42,0,18.66,0,37.32,0,55.98,0,60.65,0,121.29-.08,181.94.04,19.41.04,38.68-1.17,57.37-6.64,50.67-14.83,84.27-46.7,97.19-98.7,3.89-15.65,4.44-31.66,3.21-47.65-4.28-55.5-31.98-94.77-82.83-117.41-23.56-10.49-48.76-13.09-74.23-13.13-79.64-.11-159.28-.04-238.92-.04-3.23,0-6.46,0-10.13,0v283.52ZM253.29,505.69c3.45.16,5.76.37,8.07.37,55.66.01,111.33.11,166.99-.1,9.96-.04,20.01-.68,29.85-2.17,115.82-17.51,145.51-144.94,88.89-218.08-28.4-36.69-66.23-55.15-112.24-55.72-58.32-.72-116.66-.22-174.99-.2-2.2,0-4.4.58-6.58.88v275Z"/>
        <path class="cls-1" d="M3668.72,1234.67h-238.86c0-4.74,0-8.98,0-13.22,0-148.55-.02-297.1.01-445.65,0-32.36-1.52-64.56-8.57-96.3-4.06-18.28-9.73-35.98-18.51-52.57-21.16-40-54.74-60.99-99.64-62.98-67.5-3-117.55,25.89-150.19,84.8-15.37,27.73-23.07,57.98-27.85,89.1-4.15,27.08-5,54.37-5.02,81.68-.07,133.89-.03,267.79-.03,401.68,0,4.26,0,8.52,0,13.39h-238V366.07h238v32.24c0,10.33-.04,20.65.01,30.98.05,10.47-.22,20.96.3,33.81,3.74-4.68,5.85-7.19,7.82-9.79,49.18-64.88,114.58-99.69,195.62-105.96,41.62-3.22,82.56.09,122.71,11.46,60.57,17.16,108.83,52.19,146.17,102.44,8.72,11.73,16.15,24.42,24.18,36.67,1.4,2.13,2.81,4.26,4.67,7.07,1.4-2.1,2.38-3.35,3.13-4.73,30.29-56.01,75.97-95.27,132.92-122.4,51.63-24.6,105.72-35.21,162.95-30.71,41.25,3.24,81.08,11.46,118.54,29.32,58.47,27.89,100.44,72.56,130.26,129.3,20.49,38.98,32.75,80.66,39.85,123.96,5.73,34.92,7.89,70.1,7.88,105.46-.04,162.87-.02,325.74-.01,488.61,0,3.29,0,6.59,0,9.69-7.87,2.14-218.25,2.94-238.19.94-.12-3.97-.34-8.14-.34-12.32-.02-148.88.03-297.76-.05-446.64-.02-33.02-1.83-65.9-9.27-98.24-3.97-17.26-9.49-33.95-17.71-49.7-20.96-40.12-54.35-61.4-99.26-63.53-68.3-3.24-118.98,25.62-151.3,85.95-15.44,28.84-23.05,60.15-27.73,92.28-3.61,24.78-4.54,49.69-4.52,74.71.11,134.89.05,269.79.05,404.68,0,3.96,0,7.92,0,13.06Z"/>
        <path class="cls-1" d="M4953.62,1234.63v-95.1c-2.56,2.49-3.7,3.44-4.65,4.55-48.03,55.89-108.49,91.42-180.73,104.2-92.54,16.38-180.55,1.75-261.48-47.48-59.21-36.03-105.16-85.6-142.01-143.8-35.82-56.56-57.43-118.31-66.08-184.65-9.73-74.61-5.97-148.37,16.62-220.34,33.22-105.82,95.77-190.26,189.21-250.69,50.77-32.84,107.21-49.47,167.47-53.96,46.73-3.48,92.74-.06,137.12,15.22,54.86,18.88,102.56,49.06,140,94.13.82.99,1.54,2.06,3.36,2.85,1.17-10.3,1.04-20.38,1.07-30.45.02-10.33,0-20.65,0-30.98v-30.67c7.42-2.38,226.25-2.97,238.15-.75v867.92h-238.04ZM4534.24,800.25c.01,30.13,3.28,59.84,12.9,88.52,20.41,60.8,57.98,106.82,118.02,131.83,44.28,18.44,90.69,20.69,137.43,11.62,68.45-13.29,116.01-53.82,146.24-115.56,14.38-29.37,20.92-60.87,23.17-93.39,2.67-38.6-.29-76.63-12.87-113.32-21.68-63.23-61.87-109.82-125.71-133.16-42.62-15.58-86.76-17.07-131-8.04-68.34,13.96-115.49,54.98-145.11,116.98-17.25,36.12-23.1,74.8-23.08,114.52Z"/>
        <path class="cls-1" d="M2793.81,855.95h-679.08c1.89,11.2,2.9,21.42,5.4,31.25,17.5,68.73,58.96,117.53,125.34,142.4,63.06,23.62,127.69,24.45,192.09,3.69,19.78-6.37,38.02-16.03,54.53-28.75,16.6-12.78,30.06-28.27,39.57-47,1.98-3.89,4.02-6.16,8.97-6.15,79.65.18,159.31.15,238.97.21.94,0,1.89.4,3.73.81-1.14,3.92-2.16,7.7-3.35,11.43-26.34,82.56-76.41,147.75-145.89,198.65-61.89,45.33-130.93,73.37-206.71,85-70.22,10.78-140.1,9.53-209.51-6.23-159.56-36.21-286.38-162.32-322.55-321.96-20.7-91.36-19.45-182.5,9.4-272.16,45.74-142.12,166.95-253.51,312.7-287.09,93.78-21.61,187.15-19.57,279.08,10.48,110.47,36.1,241.7,134.58,282.77,310.33,12.74,54.53,16.99,109.76,15.38,165.58-.08,2.62-.46,5.23-.85,9.51ZM2124.93,698.98h407.35c-.33-2.11-.45-3.75-.84-5.33-15.03-61.01-48.66-107.11-106.73-134.03-44.51-20.63-90.8-24.15-138.63-16.34-67.12,10.96-135.97,55.56-160.27,148.41-.57,2.19-.56,4.53-.88,7.29Z"/>
        <path class="cls-1" d="M6760.57,855.84h-676.83c-.06,11.59,1.94,21.95,4.58,32.11,18.26,70.25,61.24,119.18,129.62,143.3,61.73,21.77,124.76,22.42,187.42,2.11,20.74-6.72,39.83-16.89,56.93-30.53,15.56-12.42,28.28-27.28,37.26-45.1,2.19-4.35,4.72-6.34,9.88-6.33,78.99.17,157.98.12,236.97.15,1.31,0,2.62.29,5.01.57-1.17,4.07-2.16,7.83-3.33,11.53-26.44,82.91-76.75,148.3-146.59,199.32-62.53,45.67-132.32,73.75-208.83,84.97-79.44,11.64-158.17,8.83-235.48-14.34-146.28-43.84-259.99-165.05-293.82-314.05-20.59-90.69-19.49-181.23,8.63-270.3,45.14-143,166.85-255.29,313.24-289.13,93.76-21.67,187.84-21.55,278.93,10.78,148.56,52.74,243.93,156.26,282.92,309.81,13.78,54.27,17.19,109.72,15.6,165.53-.07,2.32-.33,4.64-.63,6.95-.08.61-.61,1.16-1.47,2.67ZM6499.78,699.06c.22-1.21.36-1.55.32-1.86-.13-.98-.28-1.97-.52-2.93-14.86-61.04-48.31-107.31-106.3-134.39-40.13-18.74-82.07-23.34-125.75-18.61-85.93,9.31-152.05,66.02-173.54,149.81-.62,2.44-.69,5.02-1.07,7.98h406.85Z"/>
        <path class="cls-1" d="M1853.03,796.77c-.28,86.22-17.79,164.88-62.17,235.64-67.27,107.27-161.08,179.7-285.42,209.67-54.25,13.07-109.36,15.17-164.85,9.39-66.67-6.95-129.04-26.89-185.72-62.69-86.05-54.35-151.12-126.95-188.32-222.63-25.29-65.05-32.86-132.74-28.08-202.08,3.98-57.8,18.34-112.74,43.91-164.84,45.06-91.81,151.4-209.08,309.03-242.25,45.6-9.59,91.59-12.7,138.12-9.61,62.66,4.17,122.55,18.89,177.71,49,106.16,57.94,182.77,142.11,222.79,257.39,16.42,47.31,22.68,96.39,23,143.01ZM1394.91,569.93c-7.99,0-16-.35-23.96.11-6.29.36-12.58,1.43-18.77,2.66-75.69,15.02-127.24,59.91-156.75,129.91-20.88,49.54-22.5,101.51-12.54,153.98,19.85,104.49,117.94,200.7,263.01,169.16,69.36-15.08,116.65-59.27,145.03-123.16,22.89-51.53,24.87-105.76,14.1-160.55-17.61-89.55-95.88-174.72-210.12-172.11Z"/>
        <path class="cls-1" d="M5337.46,365.92h237.33v132.41c.63.13,1.26.26,1.89.39,1.36-2.84,2.73-5.68,4.09-8.53,35.63-74.64,94.69-118.72,175.88-132.48,36.15-6.13,72.4-3.2,108.02,5.89,1.89.48,3.7,1.27,5.94,2.04v240.65c-3.09-.74-5.88-1.26-8.59-2.07-25.58-7.65-51.54-13.08-78.24-15.34-92.07-7.78-162.67,37.9-192.82,125.12-10.1,29.22-14.53,59.42-15.55,90.16-.54,16.3-.27,32.63-.27,48.95-.02,122.88,0,245.76,0,368.64v11.71c-7.83,2.15-217.67,2.96-236.89,1.08-1.9-7.34-2.77-848.42-.78-868.65Z"/>
        <path class="cls-1" d="M6802.74,1074.65c-2.18-94.67,77.74-174.17,174.73-173.87,90.55.28,174.21,78.35,173.71,175.4-.49,94.75-82.58,174.03-175.75,173.35-96.31-.7-175.32-80.11-172.69-174.89Z"/>
      </g>
    </g>
  </g>
</svg>